<?xml version="1.0" encoding="UTF-8" standalone="no"?>
<!-- Created with Inkscape (http://www.inkscape.org/) -->

<svg
   xmlns:dc="http://purl.org/dc/elements/1.1/"
   xmlns:cc="http://creativecommons.org/ns#"
   xmlns:rdf="http://www.w3.org/1999/02/22-rdf-syntax-ns#"
   xmlns:svg="http://www.w3.org/2000/svg"
   xmlns="http://www.w3.org/2000/svg"
   xmlns:sodipodi="http://sodipodi.sourceforge.net/DTD/sodipodi-0.dtd"
   xmlns:inkscape="http://www.inkscape.org/namespaces/inkscape"
   version="1.1"
   id="svg383"
   xml:space="preserve"
   width="812.59869"
   height="1058.2679"
   viewBox="0 0 812.59869 1058.2679"
   sodipodi:docname="LOGO-POLI.svg"
   inkscape:version="0.92.3 (2405546, 2018-03-11)"><metadata
     id="metadata389"><rdf:RDF><cc:Work
         rdf:about=""><dc:format>image/svg+xml</dc:format><dc:type
           rdf:resource="http://purl.org/dc/dcmitype/StillImage" /><dc:title></dc:title></cc:Work></rdf:RDF></metadata><defs
     id="defs387"><clipPath
       clipPathUnits="userSpaceOnUse"
       id="clipPath399"><path
         d="M 0,793.701 H 609.449 V 0 H 0 Z"
         id="path397"
         inkscape:connector-curvature="0" /></clipPath></defs><sodipodi:namedview
     pagecolor="#ffffff"
     bordercolor="#666666"
     borderopacity="1"
     objecttolerance="10"
     gridtolerance="10"
     guidetolerance="10"
     inkscape:pageopacity="0"
     inkscape:pageshadow="2"
     inkscape:window-width="1440"
     inkscape:window-height="1051"
     id="namedview385"
     showgrid="false"
     inkscape:zoom="0.2230059"
     inkscape:cx="-69.024391"
     inkscape:cy="529.13397"
     inkscape:window-x="0"
     inkscape:window-y="0"
     inkscape:window-maximized="1"
     inkscape:current-layer="g391" /><g
     id="g391"
     inkscape:groupmode="layer"
     inkscape:label="LOGO-POLI-NEGRO"
     transform="matrix(1.3333333,0,0,-1.3333333,0,1058.268)"><g
       id="g401"
       transform="translate(326.2061,519.4536)"
       style="fill:#ffffff"><path
         d="m 0,0 -22.756,-53.625 c -12.029,1.25 -24.135,0.729 -24.135,0.729 L -63.5,-13.059 Z m -7.336,-68.54 c 0.109,-0.093 0.158,-0.206 0.316,-0.285 L 32.043,25.754 8.73,20.635 1.348,3.267 -64.527,-10.586 -70.252,3.106 -73.199,2.489 -48.525,-55.212 c 15.531,-1.299 28.953,-4.895 41.189,-13.328"
         style="fill:#ffffff;fill-opacity:1;fill-rule:nonzero;stroke:none"
         id="path403"
         inkscape:connector-curvature="0" /></g><g
       id="g405"
       transform="translate(373.3857,197.9912)"
       style="fill:#ffffff"><path
         d="m 0,0 c 2.549,4.09 4.879,8.303 7.225,12.631 l -41.248,96.383 -5.534,13.029 c -2.377,-3.473 -4.912,-6.754 -7.623,-9.861 l 4.643,-11.092 z"
         style="fill:#ffffff;fill-opacity:1;fill-rule:nonzero;stroke:none"
         id="path407"
         inkscape:connector-curvature="0" /></g><g
       id="g409"
       transform="translate(101.9033,512.166)"
       style="fill:#ffffff"><path
         d="m 0,0 v 37.587 l -1.633,0.919 -9.254,-24.372 3.582,-6.18 z"
         style="fill:#ffffff;fill-opacity:1;fill-rule:nonzero;stroke:none"
         id="path411"
         inkscape:connector-curvature="0" /></g><g
       id="g413"
       transform="translate(524.4561,323.0576)"
       style="fill:#ffffff"><path
         d="m 0,0 13.945,-8.797 -28.841,4.264 -15.323,11.822 15.877,-2.156 z m 15.215,-30.283 -32.283,4.262 2.172,19.064 33.091,-5.451 z m -21.965,-1.635 -11.713,2.221 2.774,1.568 17.878,-3.232 z m -5.355,-31.25 14.451,-15.436 -28.987,1.459 h -0.57 l -2.564,2.538 -10.887,10.918 -19.461,12.298 37.572,-3.9 z m 12.025,-35.781 -32.279,0.695 h -0.125 l 5.117,18.115 0.156,0.584 31.111,-2.377 z m -25.369,-28.115 8.095,-20.569 -32.408,-0.269 -2.849,4.482 -8.702,13.709 -11.441,13.264 v -42.948 l 0.08,-0.421 h -0.08 v 0.421 l -4.613,3.682 v -4.219 l -30.221,-0.761 c 4.66,7.226 9.065,14.836 13.233,22.724 l 16.322,-17.16 0.666,-0.584 v 44.625 l 4.613,-5.359 0.158,5.945 33.881,-1.443 z m -0.317,-37.719 -32.693,-0.934 7.512,15.137 33.801,0.475 z m -29.351,-16.098 5.008,-23.406 -22.645,-1.19 v 17.844 5.799 19.398 l 3.772,0.129 2.392,0.096 4.596,-7.543 z m -6.196,-36.861 c -2.822,2.533 -6.638,4.818 -11.441,6.705 v 3.232 l 20.459,0.696 z m -35.941,-2.252 c -0.793,0.256 -1.822,0.416 -3.217,0.523 -1.552,0.16 -3.377,0.287 -5.484,0.287 -15.324,0 -28.191,-2.884 -31.486,-6.718 -1.791,1.095 -2.743,2.234 -2.743,3.457 0,4.843 15.133,8.81 33.752,8.81 3.694,0 7.227,-0.16 10.571,-0.447 1.22,-0.064 2.381,-0.205 3.41,-0.314 6.273,-0.793 11.519,-2.047 15.084,-3.551 v -8.951 c -5.908,-2.649 -16.719,-4.301 -29.065,-4.301 h -1.504 c -1.189,0 -2.423,0 -3.584,0.064 -6.509,0.239 -12.421,0.985 -17.144,2.061 -1.947,0.697 -3.106,1.445 -3.106,2.22 0,2.629 12.868,4.85 29.19,5.055 h 2.346 c 0.507,0 0.953,0 1.394,0.051 4.041,0.121 4.438,1.088 1.586,1.754 m 19.887,12.015 v -1.447 c -1.455,0.461 -2.899,0.91 -4.561,1.242 z m -8.414,1.805 -1.192,-0.064 -0.711,2.381 -5.007,15.847 -13.375,24.469 28.699,0.947 v -26.638 -5.469 -11.012 z m 26.812,-20.885 c 0,-10.806 -21.457,-19.509 -47.824,-19.509 -5.992,0 -11.633,0.379 -16.912,1.256 -1.029,0.138 -2.109,0.312 -3.057,0.517 -16.449,3.09 -27.795,9.893 -27.795,17.736 0,10.807 21.313,19.573 47.764,19.573 5.322,0 10.619,-0.416 15.418,-1.082 1.141,-0.108 2.268,-0.332 3.328,-0.537 3.85,-0.6 7.434,-1.522 10.68,-2.553 v -3.658 c -3.645,1.252 -8.178,2.263 -13.344,2.961 -1.062,0.173 -2.217,0.289 -3.375,0.382 -3.881,0.43 -8.018,0.616 -12.346,0.616 -20.884,0 -37.763,-4.864 -37.763,-10.934 0,-5.305 13.218,-9.695 30.728,-10.648 1.238,-0.077 2.346,-0.077 3.584,-0.225 1.154,0 2.264,-0.012 3.451,-0.012 11.633,0 22.125,1.524 29.065,3.93 1.793,0.619 3.344,1.35 4.613,2.103 v 3.7 0.902 0.152 2.584 c 0.758,-0.408 1.744,-1.17 2.346,-2.486 0,0 0.347,-0.807 1.109,-0.52 0.682,0.206 -0.271,3.104 -3.455,5.356 v 0.076 4.012 c 8.414,-3.518 13.785,-8.324 13.785,-13.692 m -75.338,-19.177 c 1.428,-0.332 2.901,-0.741 4.407,-1.125 0.998,-0.223 1.982,-0.377 2.98,-0.557 2.979,-0.57 6.225,-1.029 9.524,-1.344 l -14.534,-1.031 z m 18.67,-13.455 -27.289,-2.264 11.393,8.605 28.287,2.373 z m -37.258,-14.563 -26.892,-2.918 -5.547,-0.549 -2.393,-0.302 v 21.423 l -2.851,17.192 26.24,1.383 4.09,-10.463 9.494,-15.797 z m -22.599,-7.385 -15.846,-2.058 4.563,3.551 21.14,1.63 z m 10.174,46.231 -25.465,-1.383 c 7.355,3.187 14.502,7.082 21.521,11.645 z m -77.014,41.789 c -100.949,-0.367 -153.645,113.287 -147.684,245.98 l 13.264,1.567 c -2.898,-10.871 0.586,-19.237 0.553,-19.92 l 75.656,6.418 c -2.473,-0.858 -5.769,-2.328 -9.096,-4.625 l -66.716,-6.244 c -0.237,-4.121 -0.286,-8.289 -0.286,-12.502 0,-29.258 4.563,-56.957 12.471,-82.094 -1.348,-2.914 -2.14,-6.768 -1.109,-11.645 1.189,-5.359 5.086,-9.953 10.635,-13.613 4.898,-11.142 10.459,-21.504 16.48,-31.109 l 8.588,18.271 c 1.822,-1.219 1.383,-0.886 2.617,-1.599 l -8.414,-20.76 c 0,0 -2.156,-8.209 5.91,-16.436 3.373,-3.531 6.164,-3.642 8.065,-2.898 l 13.027,31.363 c 0.793,-0.256 1.664,-0.476 2.584,-0.697 l -13.188,-32.568 c 23.235,-25.782 51.157,-41.125 78.985,-41.266 17.672,-0.078 34.959,6.576 50.918,18.082 7.146,5.131 13.945,11.268 20.49,18.176 -21.252,-26.227 -46.623,-41.807 -73.75,-41.881 m -6.105,-90.303 4.437,15.229 0.285,20.871 c 0.508,0 0.905,-0.032 1.383,-0.032 7.588,0 15.051,0.749 22.596,2.092 l 2.552,-18.715 6.75,-14.972 z m -22.676,17.02 -30.268,-3.737 6.035,15.338 2.299,16.944 c 7.387,-2.856 14.899,-5.024 22.52,-6.643 z m -49.572,32.248 -33.596,-3.276 10.367,13.071 5.828,13.156 c 6.246,-5.213 12.711,-9.859 19.432,-13.93 z m -40.87,43.191 -24.261,-0.955 c 0.759,1.287 1.156,2.648 1.156,3.992 0,1.6 -0.602,3.219 -1.504,4.647 l 1.74,2.092 8.225,12.361 c 4.963,-7.133 10.002,-13.82 15.357,-20.065 z m -38.763,10.582 c 2.156,-1.076 3.424,-2.201 3.424,-3.455 0,-1.254 -1.268,-2.375 -3.424,-3.455 z m -14.008,-3.058 c -21.281,3.435 -31.822,-0.379 -34.547,-1.569 -0.236,0.41 -0.443,0.762 -0.443,1.172 0,3.832 11.791,6.975 26.242,6.975 4.928,0 9.492,-0.334 13.441,-1.082 1.819,-0.217 3.328,-0.551 4.83,-0.903 v -6.334 -3.615 c -4.754,-1.299 -11.187,-1.996 -18.271,-1.996 -8.526,0 -16.149,1.074 -20.918,2.738 4.961,3.852 24.658,2.584 28.588,2.809 4.088,0.217 1.078,1.805 1.078,1.805 m 25.814,-8.555 c -0.677,-1.018 -1.664,-1.94 -2.787,-2.777 -6.277,-4.864 -18.494,-8.049 -32.568,-8.049 -20.443,0 -36.971,6.826 -36.971,15.246 0,8.351 16.528,15.228 36.971,15.228 5.135,0 9.969,-0.427 14.502,-1.189 1.551,-0.32 3.06,-0.652 4.562,-1.018 v -2.468 c -1.744,0.472 -3.611,0.804 -5.672,1.125 -3.898,0.587 -8.224,0.871 -12.789,0.871 -16.084,0 -29.064,-3.948 -29.064,-8.875 0,-4.895 12.98,-8.887 29.064,-8.887 8.575,0 16.196,1.125 21.489,2.961 4.675,1.523 7.466,3.629 7.466,5.926 0,2.048 -2.22,3.916 -6.009,5.406 v 2.662 c 6.562,-2.221 11.172,-5.355 12.759,-8.951 0.397,-0.908 0.633,-1.875 0.633,-2.791 0,-1.541 -0.556,-3 -1.586,-4.42 m -66.605,241.162 136.777,69.728 63.42,9.416 47.942,-10.904 4.357,-1.03 1.125,-0.255 5.594,-1.252 -0.049,-0.016 114.941,-27.085 z m 159.933,99.282 c 0,0 1.315,0.89 3.895,1.555 v -1.872 c 0,-0.601 0.43,-1.062 0.984,-1.062 0.604,0 1.078,0.461 1.078,1.062 v 2.205 c 0.901,0.188 1.899,0.252 3.057,0.252 5.801,0 9.336,-2.14 9.336,-2.14 v -20.346 l -12.393,-1.854 v 3.312 c 0,0.585 -0.474,1.063 -1.078,1.063 -0.554,0 -0.984,-0.478 -0.984,-1.063 v -3.676 l -3.895,-0.509 z m -5.359,7.054 c 0,4.122 3.963,7.529 8.844,7.529 h 10.967 c 4.961,0 8.89,-3.407 8.89,-7.529 0,-1.571 -0.586,-3.089 -1.615,-4.313 v 0.064 c 0,0 -6.516,2.599 -12.713,2.599 -6.244,0 -12.469,-2.599 -12.469,-2.599 v -0.44 c -1.191,1.315 -1.904,2.914 -1.904,4.689 m 22.789,13.994 c 0,-1.286 -0.474,-2.537 -1.267,-3.471 h -0.555 -13.231 -0.638 c -0.709,0.934 -1.137,2.185 -1.137,3.471 0,3.075 2.248,5.465 5.117,5.465 H -283 c 2.898,0 5.244,-2.39 5.244,-5.465 m 6.307,-7.134 c -1.141,1.334 -2.613,2.364 -4.324,2.982 0.552,1.266 0.837,2.677 0.837,4.152 0,0.602 -0.048,1.124 -0.126,1.663 z m 13.121,-31.567 -3.66,-0.473 -8.098,20.363 c 0.793,1.472 1.219,3.042 1.219,4.817 0,0.269 0,0.49 -0.031,0.713 z m 79.332,-5.199 34.832,82.425 5.611,1.187 c 14.166,-31.662 23.944,-69.903 28.032,-111.438 l -59.061,13.928 c -2.822,4.898 -5.912,9.541 -9.414,13.898 m 110.568,117.223 25.418,-12.217 -6.195,-8.86 -7.305,-2.962 -20.332,-14.515 c -2.666,7.208 -5.484,14.231 -8.543,20.997 z m 37.971,-41.535 35.781,-15.497 -17.322,-19.016 -13.135,-9.765 -38,15.673 19.252,13.929 z m 30.457,6.26 6.434,-18.731 -36.1,14.847 -5.244,19.305 z m -20.207,-83.467 0.666,0.457 3.029,-0.966 L 13.945,112.896 0,103.958 l -14.375,-5.829 -2.137,-0.857 -1.521,0.429 -33.627,10.172 16.193,5.58 z m 35.627,11.965 1.379,-19.826 -33.627,10.807 -0.16,0.064 -1.475,12.567 -1.078,10.081 z M -33.23,79.08 h -18.43 c -0.526,8.747 -1.24,17.321 -2.141,25.847 l 35.895,-10.635 c 0.474,-6.116 0.681,-12.313 0.918,-18.591 z m -32.694,90.359 41.266,-15.765 0.318,0.221 c 0.11,-0.619 0.238,-1.22 0.317,-1.808 l -13.393,-0.919 -22.342,-7.892 c -1.84,8.939 -3.869,17.622 -6.166,26.163 m -174.178,-335.041 c -40.238,5.356 -51.789,28.54 -46.386,42.372 1.299,3.25 2.013,5.232 2.613,6.466 30.381,0.698 56.322,18.844 67.006,44.326 2.662,0.778 8.543,3.073 13.027,8.004 l 27.924,-68.24 c 0,0 4.039,-12.265 -3.789,-19.697 -10.871,-10.301 -37.004,-16.371 -60.395,-13.231 m -49.255,48.854 c 0.875,-0.016 1.634,-0.016 2.552,-0.016 -4.613,-9.713 -8.67,-26.275 10.399,-38.541 14.845,-9.541 32.611,-14.654 48.617,-14.654 25.654,0.045 46.418,10.885 46.418,10.885 0,0 -28.035,-20.399 -64.104,-11.916 -63.896,15.607 -47.211,48.681 -43.882,54.242 m -72.754,45.275 c -0.508,0 -0.951,-0.187 -1.188,-0.472 0,0.965 0.078,1.82 0.205,2.613 0.237,-0.318 0.475,-0.522 0.746,-0.522 0.522,0 0.869,0.713 0.869,1.649 0,0.744 -0.316,1.379 -0.712,1.535 1.474,3.359 4.136,4.709 4.136,4.709 0,0 0.08,-0.396 0.237,-1.127 -0.553,-0.016 -1.078,-0.713 -1.078,-1.586 0,-0.902 0.525,-1.648 1.158,-1.648 0.316,0 0.525,0.191 0.761,0.476 1.538,-4.388 4.959,-11.568 12.346,-16.433 15.324,-10.301 35.973,-12.996 35.973,-12.996 -3.852,-0.789 -7.94,-1.235 -12.186,-1.235 -0.316,0.731 -1.474,1.235 -2.929,1.235 h -0.049 v 0.097 c 0,0.965 -0.715,1.727 -1.635,1.727 -0.791,0 -1.348,-0.57 -1.504,-1.238 h -0.92 c -1.346,0 -2.488,-0.19 -3.404,-0.489 0.156,0.283 0.314,0.649 0.314,1.03 0,0.869 -0.556,1.584 -1.189,1.584 -0.477,0 -0.76,-0.286 -0.951,-0.743 -0.477,0.188 -0.996,0.313 -1.598,0.313 -0.826,0 -1.508,-0.172 -2.141,-0.553 -0.427,0.477 -1.238,0.809 -2.109,0.858 0.162,0.425 0.318,0.886 0.318,1.455 0,1.363 -0.586,2.49 -1.218,2.49 -0.635,0 -1.287,-1.127 -1.287,-2.49 0,-0.11 0.08,-0.204 0.08,-0.268 -0.506,0.268 -1.188,0.459 -1.934,0.459 -0.553,0 -1.029,-0.08 -1.395,-0.223 0.081,0.352 0.208,0.809 0.208,1.286 0,1.568 -0.92,2.867 -2.106,2.867 -0.684,0 -1.24,-0.381 -1.635,-1.032 -0.316,0.43 -0.791,0.651 -1.267,0.651 -0.366,0 -0.553,-0.094 -0.871,-0.317 -0.288,0.256 -0.604,0.459 -1.045,0.459 -0.43,0 -0.795,-0.203 -1.143,-0.474 -0.049,0.904 -0.682,1.617 -1.394,1.68 0,0.363 0.08,0.605 0.08,0.857 0,1.234 -0.399,2.141 -0.873,2.82 0.587,0.301 0.996,0.967 0.996,1.916 0,1.143 -0.633,2.076 -1.315,2.076 -0.758,0 -1.422,-0.933 -1.422,-2.076 0,-0.365 0.108,-0.793 0.315,-1.125 -0.68,0 -1.285,-0.426 -1.635,-1.187 -0.236,0.156 -0.473,0.269 -0.678,0.269 -0.556,0 -0.906,-0.316 -1.189,-0.715 -0.031,0.065 -0.111,0.163 -0.16,0.237 0.396,0.478 0.633,1.287 0.633,2.156 0,0.586 -0.077,1.063 -0.313,1.508 0.838,0.156 1.471,0.933 1.471,1.949 0,1.094 -0.762,2.045 -1.662,2.045 -0.952,0 -1.76,-0.951 -1.76,-2.045 0,-0.269 0.047,-0.541 0.16,-0.762 -0.479,-0.091 -0.795,-0.412 -1.031,-0.713 -0.317,0.713 -0.588,1.491 -0.713,2.284 -0.113,0.49 -0.318,1.074 -0.35,1.537 0.35,-0.221 0.635,-0.301 0.983,-0.301 0.998,0 1.791,0.869 1.791,1.947 0,1.078 -0.793,1.996 -1.791,1.996 m 63.47,96.354 c -1.507,-2.043 -4.25,-6.545 -2.109,-10.268 2.217,-5.5 11.998,-10.888 48.684,-24.773 17.32,-6.59 57.984,-20.502 49.599,-47.287 -1.504,-4.846 -8.414,-9.698 -12.851,-10.951 0.111,0.316 0.193,0.589 0.316,0.873 l -0.412,-0.493 c 0.207,0.793 0.682,2.823 1.207,4.85 0.473,0 1.062,0.08 1.535,0.555 0.889,0.633 1.205,1.57 0.762,2.172 -0.399,0.412 -1.029,0.507 -1.713,0.205 0.318,1.334 0.478,2.363 0.478,2.552 0,0.19 -0.033,0.506 -0.16,0.885 0.76,-0.537 1.522,-0.76 1.951,-0.408 0.317,0.221 0.366,0.697 0.237,1.266 0.049,-0.096 0.08,-0.143 0.129,-0.237 0.472,-0.652 1.582,-0.683 2.373,-0.08 0.842,0.651 1.031,1.68 0.476,2.377 -0.476,0.699 -1.55,0.715 -2.377,0.065 -0.552,-0.444 -0.793,-1.079 -0.761,-1.635 -0.19,0.445 -0.428,0.998 -0.869,1.539 -0.999,1.283 -2.266,1.947 -2.932,1.599 -0.84,1.475 -2.188,3.204 -4.027,5.135 0,0 0.126,0 0.207,0.096 1.076,0.822 1.267,2.662 0.189,3.945 -1.029,1.299 -2.773,1.617 -3.852,0.713 -0.425,-0.236 -0.585,-0.666 -0.714,-1.094 -0.95,0.713 -1.932,1.459 -2.93,2.205 0.476,0.063 1.029,0.284 1.508,0.698 1.422,1.06 1.662,3.01 0.758,4.357 -1.075,1.221 -3.028,1.379 -4.407,0.317 -1.078,-0.78 -1.517,-2.077 -1.234,-3.184 -1.346,0.789 -2.789,1.676 -4.373,2.566 0.156,0.395 0.156,0.87 0.08,1.346 0.441,0.065 0.791,0.238 1.107,0.461 0.524,0.473 0.809,1.107 0.873,1.885 0.569,-0.317 1.155,-0.334 1.6,0 0.633,0.443 0.633,1.49 0.031,2.205 -0.584,0.758 -1.506,0.932 -2.107,0.439 0,-0.031 -0.033,-0.123 -0.111,-0.154 -0.125,0.188 -0.207,0.348 -0.364,0.568 -1.345,1.68 -3.486,2.188 -4.756,1.19 -1.074,-0.858 -1.236,-2.584 -0.474,-4.104 -0.047,0 -0.047,-0.048 -0.16,-0.08 -0.366,-0.301 -0.489,-0.715 -0.602,-1.191 -2.457,1.271 -5.246,2.474 -8.256,3.771 0.16,1.223 -0.474,2.76 -1.756,3.934 -1.746,1.678 -4.201,2.156 -5.359,0.869 -0.395,-0.396 -0.555,-0.982 -0.555,-1.664 -0.84,0.35 -1.662,0.682 -2.504,0.967 0.446,0.633 0.524,1.394 0.239,2.109 0.127,0.08 0.285,0.158 0.365,0.221 1.267,0.904 1.299,2.851 0.238,4.199 -1.111,1.395 -2.951,1.809 -4.09,0.858 -1.236,-0.969 -1.363,-2.821 -0.285,-4.217 -0.428,-0.397 -0.635,-1.061 -0.635,-1.664 -0.634,0.254 -1.187,0.478 -1.742,0.634 0.158,1.299 -0.556,2.963 -2.107,4.168 -0.762,0.538 -1.584,0.967 -2.426,1.127 0.049,0 0.08,0 0.158,0.012 0.635,0.51 0.684,1.443 0.127,2.238 0,0 0,0.032 -0.08,0.032 0.08,0 0.16,0 0.193,0.091 0.916,0.655 0.916,2.172 0.047,3.299 -0.953,1.17 -2.392,1.475 -3.297,0.791 -0.919,-0.699 -0.951,-2.25 -0.126,-3.392 0.285,-0.252 0.601,-0.522 0.839,-0.664 -0.365,-0.506 -0.318,-1.284 0.161,-1.918 0.187,-0.221 0.394,-0.332 0.632,-0.489 -0.601,-0.113 -1.111,-0.32 -1.474,-0.793 -0.317,-0.445 -0.475,-0.998 -0.399,-1.599 -0.679,0.236 -1.265,0.521 -2.027,0.758 0.316,1.427 -0.871,3.25 -2.85,4.564 -1.158,0.697 -2.345,1.127 -3.377,1.172 0.35,0.158 0.791,0.412 0.983,0.793 0.681,1.094 0.205,2.598 -0.983,3.375 -1.269,0.842 -2.869,0.601 -3.502,-0.49 -0.712,-1.094 -0.236,-2.6 0.95,-3.391 0.365,-0.225 0.681,-0.348 1.127,-0.412 -0.526,-0.16 -0.918,-0.412 -1.159,-0.795 -0.158,-0.268 -0.236,-0.633 -0.236,-1.029 -1.475,0.697 -2.902,1.379 -4.297,2.011 -0.027,0.952 -0.506,2.157 -1.424,3.235 -0.841,1.123 -1.902,1.949 -2.9,2.219 1.156,0.921 1.029,2.789 -0.082,4.294 -0.838,1.032 -2.057,1.569 -3.059,1.473 -0.076,0.16 -0.076,0.209 -0.236,0.317 -0.428,0.621 -1.078,0.937 -1.742,0.808 -0.049,0.635 -0.237,1.317 -0.762,1.885 -1.031,1.318 -2.582,1.744 -3.408,1.078 -0.998,-0.744 -0.869,-2.361 0.113,-3.596 0.793,-1.078 2.028,-1.57 2.901,-1.345 0.125,-0.237 0.205,-0.557 0.394,-0.778 0.207,-0.254 0.557,-0.478 0.762,-0.601 0,-0.793 0.316,-1.698 0.949,-2.475 0.637,-0.793 1.346,-1.299 2.188,-1.49 -0.317,-0.395 -0.444,-0.998 -0.317,-1.727 -1.996,1.061 -3.851,2.157 -5.611,3.17 -0.156,0.951 -0.709,1.996 -1.422,3.074 -1.588,1.856 -3.535,2.87 -4.52,2.108 -0.252,-0.219 -0.443,-0.586 -0.443,-1.029 -2.297,1.695 -4.373,3.359 -5.957,4.929 0.441,1.123 0,2.914 -1.27,4.467 -1.267,1.635 -2.98,2.473 -4.214,2.221 -0.477,0.855 -0.793,1.631 -1.141,2.472 0.664,0.268 1.346,0.805 1.695,1.616 0.762,1.615 0.317,3.359 -0.902,3.992 -0.525,0.236 -1.111,0.285 -1.711,0.129 0.076,1.283 0.268,2.564 0.6,3.722 0,-0.933 0.318,-1.726 0.982,-2.027 1.111,-0.568 2.662,0.283 3.457,1.867 0.76,1.588 0.475,3.283 -0.586,3.836 -1.078,0.461 -2.238,-0.08 -3.027,-1.25 0.789,2.043 1.867,3.863 3.263,5.498 0.188,-0.695 0.586,-1.252 1.219,-1.57 1.287,-0.633 2.949,0.162 3.664,1.728 0.741,1.539 0.473,3.204 -0.795,3.899 3.612,2.898 7.653,4.896 11,5.91 z m 0,34.992 c -2.742,0.473 -4.406,0.838 -5.72,1.281 l 5.72,0.602 z m 7.35,-1.225 c -1.518,0.241 -2.82,0.448 -3.895,0.655 v 2.865 l 3.895,0.383 z m 14.455,-2.136 c -0.633,0.097 -1.236,0.189 -1.996,0.316 -4.043,0.586 -7.494,1.063 -10.397,1.504 v 4.393 l 12.393,1.283 z m 57.621,-79.727 c -5.879,3.787 -13.472,7.828 -22.883,11.932 -2.298,4.961 -5.754,9.492 -10.238,13.281 3.09,-3.771 5.324,-7.496 6.94,-11.887 -2.409,1.032 -4.879,1.998 -7.541,3.012 -0.272,0.125 -0.557,0.221 -0.793,0.285 -1.872,3.836 -4.723,7.242 -8.338,10.254 2.693,-3.172 4.566,-5.705 5.881,-9.32 -41.456,15.91 -43.645,20.666 -41.854,25.627 0,0.047 0.113,0.062 0.113,0.062 0.949,0.141 1.787,0.254 2.742,0.414 v 3.121 17.274 l 3.895,0.381 v -3.504 c 0,-0.633 0.43,-1.094 0.984,-1.094 0.604,0 1.078,0.461 1.078,1.094 v 3.678 l 5.752,0.443 c 2.663,-0.555 5.086,-1.412 6.641,-2.076 V 23.645 20.477 c 0.902,-0.129 1.774,-0.192 2.662,-0.305 25.403,-3.992 46.385,-20.932 54.959,-43.387 m -14.502,-21.806 c 0.129,1.552 0.237,3.074 0.285,4.642 1.379,-0.871 2.854,-1.664 4.041,-2.441 2.823,-1.869 5.563,-3.676 7.75,-5.371 -3.056,1.125 -7.226,2.252 -12.076,3.17 m -0.316,-3.124 c 10.414,-1.361 16.687,-3.136 16.687,-5.037 0,-2.156 -7.115,-4.025 -18.797,-5.437 0.922,3.408 1.633,7.019 2.11,10.474 m -10.158,-11.298 0.982,3.584 0.08,6.289 c 0.365,0.617 0.918,1.41 1.713,2.267 1.551,-0.191 3.09,-0.32 4.531,-0.476 -0.443,-3.6 -1.078,-7.432 -1.918,-11.157 -1.695,-0.158 -3.488,-0.32 -5.388,-0.507 m -10.286,12.377 c -0.08,0.253 -0.08,0.539 -0.125,0.73 1.344,-0.08 2.536,-0.16 3.77,-0.191 0.16,-0.442 0.365,-0.871 0.605,-1.157 2.454,-3.375 2.104,-8.781 -1.445,-12.345 -1.615,-0.096 -3.25,-0.207 -4.912,-0.256 1.982,3.455 3.01,7.799 2.107,13.219 m -23.279,-10.08 c 4.168,4.361 4.928,8.037 4.77,11.568 0.793,-0.027 1.695,-0.027 2.504,-0.076 1.3,-3.203 2.488,-6.498 -0.682,-8.924 -1.631,-1.252 -3.215,-3.615 -4.451,-6.324 -1.617,-0.11 -3.297,-0.11 -4.992,-0.141 0.746,1.33 1.584,2.598 2.851,3.897 m -47.144,10.285 c 1.599,0.16 3.214,0.205 4.849,0.334 0.045,-4.754 0.711,-9.332 1.901,-13.549 -1.981,0.142 -3.885,0.205 -5.752,0.363 -0.602,4.139 -0.998,8.432 -0.998,12.852 m -10.129,-1.063 c 2.392,0.319 4.978,0.621 7.832,0.842 0,-4.297 0.392,-8.492 1.187,-12.473 -2.824,0.299 -5.517,0.588 -8.017,0.84 -0.557,3.488 -0.842,7.115 -1.002,10.791 m -8.811,-9.396 c -6.226,1.236 -10.014,2.584 -10.014,4.138 0,1.346 3.264,2.598 8.907,3.739 0.156,-2.645 0.552,-5.309 1.107,-7.877 m 1.791,8.431 c 1.158,0.223 2.506,0.412 3.852,0.569 0.109,-3.391 0.601,-6.846 1.236,-10.078 -1.363,0.205 -2.742,0.429 -4.025,0.65 -0.506,2.853 -0.871,5.865 -1.063,8.859 m 31.963,-0.746 c 2.711,-5.531 0.08,-7.511 -3.375,-8.922 -0.996,-0.41 -1.9,-0.838 -2.693,-1.472 -0.76,4.308 -1.266,8.89 -1.266,13.66 2.217,0.109 4.641,0.254 7.066,0.381 -0.316,-1.078 -0.316,-2.203 0.268,-3.647 m 39.082,8.289 c -0.84,0.033 -1.666,0.096 -2.455,0.096 -0.684,4.594 -1.031,9.176 5.07,14.848 1.522,-0.522 3.057,-1.125 4.657,-1.68 0.269,-0.096 0.478,-0.139 0.714,-0.252 -1.156,-1.412 -6.669,-8.525 -7.986,-13.012 m 19.539,-1.299 c -1.031,0.141 -2.029,0.221 -3.137,0.366 0.553,4.642 2.694,7.668 1.344,10.377 1.029,-0.395 2.108,-0.805 3.186,-1.202 -0.315,-1.238 -1.471,-5.595 -1.393,-9.541 m 7.069,7.272 c 0.951,-3.928 0.314,-6.574 -0.395,-7.953 -0.842,0.125 -1.713,0.236 -2.619,0.318 -0.805,1.535 -1.029,4.184 0.08,8.729 l -0.475,0.285 c 1.141,-0.457 2.299,-0.918 3.409,-1.379 m 8.146,-3.611 c -0.08,-1.825 -0.129,-3.661 -0.32,-5.563 -1.266,0.223 -2.629,0.443 -3.977,0.615 -0.156,2.776 -1.234,6.422 -1.631,7.641 2.108,-0.902 4.104,-1.824 5.928,-2.693 m -114.941,-33.121 c -3.455,7.988 -5.436,16.654 -5.436,25.769 0,24.881 14.182,46.494 35.227,58.174 1.109,-8.381 9.017,-17.942 29.857,-28.367 -0.793,-0.809 -3.041,-3.36 -3.805,-5.451 -0.916,-2.631 -3.455,-2.631 -5.718,-4.057 -2.346,-1.443 -6.465,-5.547 -5.801,-9.762 0.478,-2.568 -0.192,-4.375 -1.031,-5.928 -3.266,-0.156 -6.401,-0.38 -9.414,-0.697 0.398,8.145 1.984,15.69 4.486,22.108 -3.93,-6.086 -6.514,-13.801 -7.069,-22.329 -1.71,-0.111 -3.294,-0.316 -4.929,-0.492 0.414,11.76 3.107,22.52 7.324,31.297 -5.641,-8.412 -9.256,-19.521 -9.697,-31.613 -2.742,-0.332 -5.44,-0.715 -7.832,-1.123 0.287,12.406 3.424,23.941 8.541,33.355 -7.1,-9.175 -11.52,-20.965 -11.709,-33.976 -1.346,-0.252 -2.694,-0.586 -3.932,-0.856 v 0.448 c 0,13.261 3.805,25.511 10.287,35.414 -8.26,-9.569 -13.265,-21.883 -13.265,-35.414 0,-0.448 0.033,-0.811 0.033,-1.208 -6.91,-1.884 -10.84,-4.105 -10.84,-6.593 0,-2.678 4.803,-5.119 12.914,-7.1 2.174,-7.668 6.039,-14.674 11.158,-20.521 -3.82,5.847 -6.672,12.584 -8.463,19.888 1.346,-0.285 2.774,-0.552 4.217,-0.841 1.981,-7.161 5.276,-13.706 9.6,-19.221 -3.09,5.623 -5.354,11.933 -6.826,18.748 2.533,-0.414 5.355,-0.858 8.3,-1.158 1.713,-6.307 4.248,-12.075 7.514,-16.942 -2.426,4.99 -4.295,10.635 -5.641,16.752 1.455,-0.16 2.85,-0.316 4.358,-0.476 -0.319,-1.633 -0.194,-3.676 0.441,-6.403 1.983,-8.304 4.012,-9.175 0.272,-12.947 -2.696,-2.582 -0.873,-6.244 0.441,-8.08 -8.699,2.361 -18.744,6.053 -25.529,11.537 -3.424,2.756 -6.037,5.498 -8.033,8.065 m 50.441,117.271 c -0.236,0.824 -1.078,1.457 -2.268,1.457 -0.472,0 -0.902,-0.158 -1.343,-0.379 -0.272,0.649 -1.078,1.156 -2.028,1.156 -1.271,0 -2.302,-0.777 -2.302,-1.757 0,-0.256 0.033,-0.477 0.162,-0.635 -5.248,0 -10.127,0.537 -13.551,2.041 -5.879,2.666 -1.822,2.441 -0.395,3.851 1.426,1.461 -6.515,1.649 -6.515,4.534 0,1.728 1.316,2.839 2.312,3.455 l 16.166,1.664 c 3.217,-0.762 8.811,-2.248 10.444,-3.139 2.14,-1.185 24.339,-2.822 29.824,-4.039 5.514,-1.187 12.473,-3.885 12.473,-15.057 0,-8.89 -11.252,-10.853 -15.688,-11.236 v 3.299 c 0.188,0.254 0.348,0.555 0.348,0.871 0,0.189 -0.034,0.379 -0.112,0.492 1.19,0.141 2.059,0.742 2.059,1.52 0,0.156 0,0.285 -0.127,0.429 0.287,-0.08 0.604,-0.177 1.047,-0.177 0.951,0 1.742,0.476 1.742,1.095 0,0.504 -0.396,0.887 -0.998,1.014 0.24,0.16 0.445,0.316 0.445,0.65 0,0.444 -0.445,0.76 -1.031,0.76 -0.601,0 -1.078,-0.316 -1.078,-0.76 0,-0.22 0.16,-0.474 0.318,-0.603 -0.666,-0.158 -1.187,-0.524 -1.187,-1.061 0,-0.033 0.029,-0.129 0.029,-0.16 -0.346,0.24 -0.951,0.352 -1.455,0.352 v 1.535 c 1.266,1.504 1.426,2.789 0.82,3.916 0.873,0.205 1.475,0.742 1.475,1.424 0,0.857 -1.029,1.539 -2.344,1.539 -0.871,0 -1.508,-0.27 -1.949,-0.682 -0.557,0.252 -1.189,0.49 -1.775,0.713 0.505,0.254 0.826,0.475 0.826,0.742 0,0.272 -0.194,0.477 -0.59,0.686 0.269,0.172 0.476,0.441 0.476,0.711 0,0.603 -0.792,1.078 -1.742,1.078 -1.047,0 -1.759,-0.475 -1.759,-1.078 0,-0.033 0,-0.063 0.046,-0.112 -0.316,0 -0.632,0.049 -0.839,0.049 -1.424,0 -2.663,-0.207 -3.409,-0.492 -0.361,0.016 -0.681,0.08 -0.966,0.129 0.048,0.047 0.16,0.172 0.16,0.268 0,0.601 -1.11,1.078 -2.328,1.078 -1.239,0 -2.237,-0.428 -2.346,-0.92 -0.24,0 -0.445,0.047 -0.713,0.062 0.268,0.258 0.473,0.59 0.473,0.951 0,0.922 -0.918,1.666 -2.077,1.666 -1.029,0 -1.851,-0.744 -1.851,-1.666 0,-0.318 0.107,-0.601 0.316,-0.918 h -1.711 c -0.082,0.664 -0.681,1.206 -1.507,1.206 0.269,0.251 0.476,0.554 0.476,0.966 0,0.698 -0.633,1.284 -1.474,1.284 -0.762,0 -1.471,-0.586 -1.471,-1.284 0,-0.715 0.633,-1.254 1.363,-1.254 -0.334,-0.254 -0.525,-0.601 -0.525,-1.013 v -0.063 c -0.838,-0.049 -1.551,-0.111 -2.346,-0.158 m -43.771,-25.295 c 0,0.574 0,1.078 0.126,1.588 l 24.549,1.787 c -0.92,-2.328 -1.523,-4.91 -1.679,-7.855 -8.608,-4.551 -16.198,-10.651 -22.235,-17.942 -0.427,5.135 -1.031,15.817 -0.761,22.422 m -8.018,-12.422 c -0.113,3.977 -0.113,8.479 0.08,13.436 l 4.215,0.269 c -0.049,-3.025 -0.158,-12.566 0.474,-21.785 0.157,-2.109 0.399,-4.219 0.635,-6.246 -1.267,-1.822 -2.506,-3.615 -3.535,-5.484 -0.601,3.248 -1.584,9.968 -1.869,19.81 m 22.09,-106.004 c 0.16,-0.015 0.316,-0.015 0.51,-0.015 0.474,-0.112 0.918,-0.16 1.39,-0.16 0.906,-0.141 1.904,-0.219 2.824,-0.219 4.356,-2.364 9.018,-4.311 13.852,-5.881 1.203,-0.35 2.393,-0.699 3.531,-1.031 1.84,0.556 3.932,1.664 6.041,3.724 1.996,1.996 3.768,4.819 5.244,9.018 4.85,14.676 4.008,12.949 10.016,16.687 3.801,2.362 3.691,6.26 4.723,10.715 1.711,0.028 3.326,0.061 5.006,0.061 -0.682,-2.201 -1.045,-4.342 -1.045,-6.151 0,-5.478 -5.786,-5.765 -9.161,-7.748 -3.535,-2.107 -2.345,-5.197 -3.535,-9.238 -1.154,-4.057 -4.609,-9.51 -6.004,-12.09 -0.236,-0.556 -0.714,-1.127 -1.156,-1.744 -1.269,-1.662 -3.014,-3.535 -4.045,-4.629 2.539,-0.426 5.119,-0.805 7.674,-1.014 1.346,1.303 3.293,3.186 5.117,5.182 2.822,2.902 5.641,6.037 6.547,7.973 1.996,4.261 1.996,7.179 10.647,11.22 14.058,5.768 7.177,14.374 11.474,18.432 0.207,0.188 0.444,0.363 0.602,0.568 0.982,0.063 1.982,0.112 2.851,0.221 -1.424,-2.33 -0.869,-4.594 -1.82,-6.955 -1.316,-3.25 -2.141,-8.703 -5.008,-10.461 -2.931,-1.758 -4.724,-5.625 -7.83,-6.861 -3.137,-1.141 -5.389,-3.235 -6.828,-7.274 -0.666,-2.078 -4.012,-4.502 -6.547,-6.814 -2.219,-2.045 -3.738,-4.057 -1.822,-5.563 0.666,0 1.265,0 1.855,0.032 28.604,0.841 53.944,17.336 62.2,43.517 0.509,1.442 0.826,2.916 1.189,4.424 -8.1,-23.898 -31.221,-39.336 -58.494,-42.06 0.873,1.216 1.855,2.408 2.695,3.486 2.854,4.088 9.254,8.574 12.74,12.25 3.553,3.707 5.454,8.16 7.594,11.058 2.027,2.823 0.869,7.942 4.926,11.618 1.744,0.191 3.375,0.316 5.043,0.507 -0.795,-2.584 -1.793,-4.404 -4.219,-8.953 3.549,3.391 5.69,5.784 7.164,9.303 1.615,0.252 3.248,0.473 4.754,0.682 -1.775,-7.116 -4.201,-13.756 -7.021,-18.289 3.963,4.548 7.259,11.283 9.527,18.734 12.201,1.947 20.299,4.705 21.834,7.824 v -0.109 c -4.324,-33.311 -34.102,-59.143 -70.328,-59.143 -16.955,0 -32.52,5.692 -44.707,15.166 m 195.113,-110.646 c -4.139,-1.19 -7.75,-2.707 -10.855,-4.434 l 5.009,4.434 z m -6.988,2.265 10.287,11.504 0.031,-11.504 z m 23.074,0.967 c -2.791,-0.334 -5.484,-0.711 -8.066,-1.236 l -0.161,13.66 z m 46.496,98.778 v -0.065 0.065 20.554 c -1.475,-4.47 -2.978,-8.857 -4.613,-13.17 v -7.129 -0.064 0.064 l -2.74,0.157 c 0.998,2.328 1.837,4.642 2.74,6.972 V 40.68 l -24.104,32.773 -3.455,4.705 -3.771,-5.881 -10.807,-16.589 11.172,0.921 c 0,-1.287 0.08,-2.586 0.08,-3.869 v -0.541 l -14.295,-1.25 -6.594,-10.14 v -2.663 l 20.68,1.774 c -1.219,-41.393 -8.414,-80.617 -19.885,-114.752 l 0.869,-112.895 c -0.632,-0.826 -3.82,-4.39 -4.642,-5.343 l -0.76,105.515 c -2.346,-5.976 -4.803,-11.808 -7.385,-17.433 l -40.347,93.959 c 11.185,13.168 19.302,29.113 23.027,46.701 l 23.754,2.045 v 3.092 l 6.353,9.759 -72.753,-6.117 c -0.874,-8.193 -2.743,-16.021 -5.356,-23.232 -1.078,-2.85 -2.236,-5.516 -3.504,-8.114 l 3.504,-8.396 5.832,-13.898 c 2.693,3.134 5.119,6.541 7.352,10.125 0.795,1.169 1.535,2.361 2.297,3.611 5.199,8.826 9.175,18.558 11.837,28.969 l 3.616,0.269 c -2.869,-12.025 -7.543,-23.262 -13.741,-33.246 l 5.913,-13.769 40.585,-95.149 c 0.077,0.109 0.157,0.252 0.237,0.35 l -0.16,-0.366 -0.077,0.016 c -3.457,-7.387 -7.228,-14.326 -11.16,-20.92 l -0.285,0.619 -43.01,102.498 -5.988,13.963 c 0,0.016 0.047,0.016 0.047,0.016 l -3.295,7.891 -5.611,13.361 c 0,0 -5.719,0.933 -10.76,-2.74 -3.662,-2.584 -5.832,-5.944 -6.797,-7.61 -2.092,2.586 -4.517,4.963 -7.07,7.131 9.855,8.529 17.115,21.807 19.621,37.274 0.285,1.476 0.473,2.978 0.68,4.486 0.205,2.582 0.316,5.15 0.316,7.75 0,5.197 -0.523,10.125 -1.426,14.896 l 11.363,1.188 c -0.046,-0.301 -0.207,-0.602 -0.316,-0.983 -1.158,-3.234 -2.664,-9.619 0,-15.705 0.822,-2.058 2.217,-4.103 4.277,-5.959 l 45.957,3.852 30.934,2.629 15.373,23.695 1.695,2.533 4.612,0.539 2.82,-3.82 27.164,-37.445 V -86.637 c 0.441,1.299 0.951,2.629 1.315,3.992 l 17.638,-13.453 17.069,-4.357 c -0.84,-2.918 -1.747,-5.787 -2.663,-8.621 z m 31.17,79.222 19.938,-3.551 c -0.905,-6.972 -2.141,-13.834 -3.375,-20.568 l -37.083,3.422 c 1.901,8.336 3.612,16.926 5.008,25.623 z m -363.172,-109.84 -21.125,-0.429 14.61,10.572 6.546,6.812 z m -34.549,133.325 9.889,1.679 0.428,-3.09 z m 397.248,284.556 35.543,-18.559 v -20.728 l -35.543,17.654 z m -13.423,-0.428 v 149.859 l 30.142,-19.539 V 274.08 l -16.719,8.795 z m -219.295,71.883 31.058,-15.501 V 234.588 l -31.058,-7.447 z M -316.914,244.73 v 3.298 h -0.078 v 49.902 l 0.078,-0.048 v 3.615 l 16.164,-7.719 v -56.877 z m 0,117.255 25.861,-12.378 -9.697,-3.484 v -47.576 l -16.164,7.861 v 3.331 l -0.078,0.029 v 48.368 h 0.078 z m 22.33,43.922 10.709,-5.617 v -48.098 l -1.867,-0.633 -8.842,4.309 z m 13.295,-52.797 v 45.833 l 10.57,-5.484 v -39.984 l -4.056,2.028 z m 29.303,-8.999 -16.118,8.049 v 39.928 l 16.118,-8.4 z m 42.769,7.448 v 0 c 1.395,0.349 2.553,-0.429 2.553,-1.824 v -5.308 l -9.699,4.834 v 0.157 z m 20.143,-56.909 c 10.41,3.44 9.969,14.103 9.969,14.103 0,0 0.236,56.846 0.236,61.964 0,5.127 -2.822,7.338 -2.822,7.338 0,0 12.234,-6.957 20.732,-11.649 8.617,-4.658 7.938,-16.021 7.938,-16.021 v -55.133 c 0,-9.571 -12.139,-13.628 -12.139,-13.628 l -22.36,-6.53 -25.863,11.52 c 0,0 13.787,4.63 24.309,8.036 m -5.561,-19.015 c 5.561,-2.585 4.928,-7.925 4.928,-7.925 v -20.238 l -26.656,-6.322 v 43.676 c 6.4,-2.649 17.763,-7.419 21.728,-9.191 m -21.728,70.805 9.699,-4.85 v -21.189 c 0,-1.347 -1.158,-2.773 -2.553,-3.231 l -7.146,-2.108 z m 98.256,-4.914 33.8,-68.3 v -0.493 l -33.8,-8.049 z m 33.8,3.788 -31.726,60.395 31.726,-19.176 z m 71.09,-273.273 33.944,-9.158 -0.317,-18.748 -33.277,7.844 -0.586,20.142 z m -1.029,-39.062 -2.344,0.49 c -0.162,-8.43 -0.525,-16.748 -1.047,-24.957 l -34.818,5.957 c 0.715,8.572 1.191,17.211 1.348,26.021 l 34.517,-7.021 c 0.078,0.842 0.078,1.646 0.078,2.472 l -32.408,7.383 17.938,1.412 14.47,3.996 1.744,0.489 1.901,-0.537 27.086,-6.752 -32.125,-6.26 1.98,-3.455 3.028,1.111 36.099,8.35 0.317,23.422 -36.653,9.779 -0.24,0.08 c -0.127,6.703 -0.443,13.374 -0.76,19.936 l 14.737,6.577 19.541,12.266 -2.553,24.039 -37.717,14.578 -0.156,-0.06 c -0.332,1.379 -0.526,2.662 -0.731,4.008 l 11.838,8.59 19.826,22.059 -8.906,22.631 -38.558,16.796 -5.909,-2.456 3.485,5.198 36.228,7.544 v 25.718 l -18.953,9.921 v 139.546 0.158 l -33.517,22.257 -28.827,-10.388 v -33.358 l -33.8,21.211 -27.512,-9.873 V 258.042 l -41.584,-9.921 v 24.5 l 22.473,6.421 c 13.66,4.056 14.261,11.773 14.261,16.21 v 55.99 c 0,12.455 -7.511,16.465 -7.511,16.465 l -17.717,10.348 c -14.295,8.478 -23.662,4.381 -23.662,4.381 l -44.358,-15.808 v -26.637 l -5.64,2.821 v 43.119 l -67.557,35.086 v -3.509 l 19.621,-10.247 v -50.142 l -19.621,9.509 v 50.88 h -0.078 v 3.509 l -27.559,-11.474 v -52.645 l 25.574,9.049 v -4.881 l -25.574,-8.97 v -54.214 l 25.574,7.877 v -4.851 l -25.574,-7.828 v -55.433 l 25.574,6.53 v -4.802 l -25.574,-6.594 v -53.484 l 27.559,5.815 v 51.124 h 0.078 v 3.615 l 16.164,-7.767 V 220.96 l -9.729,-2.313 v -23.741 l 268.422,60.49 33.83,-16.149 -33.83,-7.147 -24.976,12.077 -80.266,-17.939 c 2.264,-4.2 4.498,-8.557 6.639,-12.995 0.189,-0.601 0.476,-1.174 0.826,-1.727 l -2.807,-0.477 h -0.127 c -0.078,0.269 -1.236,2.79 -1.949,4.088 l -42.217,-99.838 -3.171,0.745 6.228,14.676 23.043,54.31 5.83,13.769 3.027,7.115 1.459,3.423 4.262,9.749 c -1.473,2.741 -2.787,5.147 -3.629,6.573 l -12.136,-2.517 -7.405,-17.701 -1.345,-3.391 -2.377,-5.676 -0.602,-1.458 -21.994,-53.293 -6.674,-16.15 -1.111,-2.726 -1.342,-3.248 -1.525,0.318 -1.899,0.46 1.899,4.61 c -11.551,8.338 -25.372,13.504 -40.188,14.867 -1.348,0.141 -2.584,0.221 -3.883,0.3 l -10.047,23.976 -14.388,34.072 -10.604,-2.361 8.381,-20.143 c -1.266,1.619 -2.896,2.521 -4.799,2.521 h -0.287 l -0.236,0.713 -6.75,16.084 -21.282,-4.706 v -8.539 l 8.778,-20.763 c -1.158,-1.696 -1.871,-3.709 -1.871,-5.894 0,-3.679 1.982,-6.958 4.931,-8.842 v -21.806 l -20.175,-2.982 c -0.286,-0.044 -0.602,-0.188 -0.918,-0.268 l -6.073,-3.124 -18.744,-3.073 v -6.482 l -5.01,-2.582 v 8.209 l -21.123,-3.391 V 95.116 l -4.961,-2.567 v 17.272 l -17.988,-2.914 V 83.389 l -5.054,-2.537 v 25.198 l -20.284,-3.343 V 70.441 l -3.582,-1.806 v 50.141 9.477 28.652 l -10.759,3.836 -13.709,-0.349 -5.514,-21.585 10.568,-9.761 17.942,-9.557 c -1.11,-7.383 -2.092,-14.911 -2.981,-22.551 l -12.344,1.556 -19.89,-3.756 -2.076,-20.888 18.748,-10.049 7.861,-1.397 -21.758,-11.074 c -1.347,-0.697 -1.951,-2.203 -1.555,-3.566 0.366,-1.364 1.76,-2.282 3.137,-2.121 l 24.629,2.564 c -0.127,-2.725 -0.16,-5.482 -0.207,-8.193 l 7.164,8.67 23.342,-29.301 -0.236,-145.006 c 1.711,-4.088 3.531,-8.08 5.515,-11.949 l -5.595,-0.141 0.08,12.09 c -0.998,2.125 -1.903,4.297 -2.774,6.449 -0.601,1.492 -1.207,2.871 -1.76,4.313 v 3.377 l 0.237,129.568 -18.983,24.291 -18.574,-22.504 -0.158,-26.668 13.535,-2.06 c 0.68,-7.196 1.424,-14.266 2.393,-21.205 l 2.377,-19.272 3.898,-15.449 c 0.871,-4.137 1.852,-8.129 2.963,-12.141 l -20.762,0.873 17.799,11.268 c -2.553,11.172 -4.613,22.724 -6.275,34.721 l -16.008,-10.415 -0.047,-38.599 26.211,-1.348 c 0.682,-2.504 1.428,-4.93 2.109,-7.387 l -15.847,-16.478 -8.178,-16.721 8.619,-20.078 24.66,0.141 -0.049,-23.151 4.534,9.762 v 0.031 13.358 l 7.226,0.064 1.156,0.016 -0.681,-0.983 -7.701,-12.455 v -20.299 c -1.506,0.473 -2.932,0.915 -4.534,1.28 v 9.226 l -3.849,-8.369 c -4.692,0.869 -9.842,1.363 -15.215,1.363 -6.781,0 -13.104,-0.73 -18.699,-2.158 l 0.238,94.186 -2.981,0.14 -1.425,0.444 -0.317,-95.973 c -9.652,-3.185 -15.927,-8.271 -15.927,-13.961 0,-9.617 17.482,-17.385 39.111,-17.385 16.215,0 30.144,4.377 36.068,10.592 l 25.106,0.946 -5.295,-13.545 -0.27,-23.112 10.758,-9.982 36.133,3.111 -0.156,-0.826 1.63,-27.91 14.264,-7.051 34.944,3.647 4.802,-13.981 16.481,-2.758 40.472,4.012 0.526,-1.254 0.236,-0.646 0.586,-1.299 14.58,0.152 25.102,3.488 16.908,4.993 2.473,11.349 34.738,3.705 17.131,12.856 c 23.136,2.058 40.537,11.06 40.537,21.76 0,2.597 -0.981,5.119 -2.854,7.416 l 12.315,14.337 -6.084,25.801 -7.069,11.471 36.227,1.383 10.553,18.24 -9.842,23.518 -12.947,16.037 c 0.875,2.711 1.744,5.465 2.586,8.162 l 35.134,-1.192 5.481,22.379 -13.899,16.051 -14.847,11.492 c 1.234,6.655 2.297,13.453 3.328,20.299 l 11.648,-2.109 23.897,2.22 4.136,20.885 L 2.949,1.189 -13.93,7.781 c 0.477,8.399 0.903,16.877 1.032,25.547 z"
         style="fill:#ffffff;fill-opacity:1;fill-rule:nonzero;stroke:none"
         id="path415"
         inkscape:connector-curvature="0" /></g><g
       id="g417"
       transform="translate(396.9795,373.626)"
       style="fill:#ffffff"><path
         d="M 0,0 4.93,0.381 7.973,5.119 3.059,4.689 Z"
         style="fill:#ffffff;fill-opacity:1;fill-rule:nonzero;stroke:none"
         id="path419"
         inkscape:connector-curvature="0" /></g><g
       id="g421"
       transform="translate(82.1729,282.5811)"
       style="fill:#ffffff"><path
         d="m 0,0 0.08,33.68 -1.553,0.22 -2.742,0.698 -0.078,-38.065 0.871,1.188 z"
         style="fill:#ffffff;fill-opacity:1;fill-rule:nonzero;stroke:none"
         id="path423"
         inkscape:connector-curvature="0" /></g><g
       id="g425"
       transform="translate(93.9951,363.0713)"
       style="fill:#ffffff"><path
         d="m 0,0 -3.646,-4.516 h 3.568 c 0,1.537 0,3.041 0.078,4.516"
         style="fill:#ffffff;fill-opacity:1;fill-rule:nonzero;stroke:none"
         id="path427"
         inkscape:connector-curvature="0" /></g><g
       id="g429"
       transform="translate(67.7061,265.9912)"
       style="fill:#ffffff"><path
         d="m 0,0 5.055,-20.078 4.959,-1.348 0.16,34.549 z"
         style="fill:#ffffff;fill-opacity:1;fill-rule:nonzero;stroke:none"
         id="path431"
         inkscape:connector-curvature="0" /></g><g
       id="g433"
       transform="translate(90.3486,358.5557)"
       style="fill:#ffffff"><path
         d="m 0,0 h -1.266 l -25.578,-16.066 0.428,-21.825 14.025,-3.486 0.032,26.543 z"
         style="fill:#ffffff;fill-opacity:1;fill-rule:nonzero;stroke:none"
         id="path435"
         inkscape:connector-curvature="0" /></g><g
       id="g437"
       transform="translate(391.5771,235.5029)"
       style="fill:#ffffff"><path
         d="m 0,0 c 1.506,4.166 3.105,8.414 4.533,12.723 l -0.795,112.978 -4.689,-0.43 z"
         style="fill:#ffffff;fill-opacity:1;fill-rule:nonzero;stroke:none"
         id="path439"
         inkscape:connector-curvature="0" /></g><g
       id="g441"
       transform="translate(174.8955,730.5327)"
       style="fill:#ffffff"><path
         d="M 0,0 -21.123,-8.731 V -59.704 L 0,-52.304 Z"
         style="fill:#ffffff;fill-opacity:1;fill-rule:nonzero;stroke:none"
         id="path443"
         inkscape:connector-curvature="0" /></g><g
       id="g445"
       transform="translate(174.8955,496.4604)"
       style="fill:#ffffff"><path
         d="M 0,0 -21.123,-4.469 V -57.906 L 0,-54.482 Z"
         style="fill:#ffffff;fill-opacity:1;fill-rule:nonzero;stroke:none"
         id="path447"
         inkscape:connector-curvature="0" /></g><g
       id="g449"
       transform="translate(174.8955,554.6035)"
       style="fill:#ffffff"><path
         d="M 0,0 -21.123,-5.436 V -57.75 L 0,-53.34 Z"
         style="fill:#ffffff;fill-opacity:1;fill-rule:nonzero;stroke:none"
         id="path451"
         inkscape:connector-curvature="0" /></g><g
       id="g453"
       transform="translate(174.8955,673.3945)"
       style="fill:#ffffff"><path
         d="M 0,0 -21.123,-7.417 V -60.392 L 0,-53.91 Z"
         style="fill:#ffffff;fill-opacity:1;fill-rule:nonzero;stroke:none"
         id="path455"
         inkscape:connector-curvature="0" /></g><g
       id="g457"
       transform="translate(174.8955,614.6182)"
       style="fill:#ffffff"><path
         d="M 0,0 -21.123,-6.465 V -60.583 L 0,-55.212 Z"
         style="fill:#ffffff;fill-opacity:1;fill-rule:nonzero;stroke:none"
         id="path459"
         inkscape:connector-curvature="0" /></g><g
       id="g461"
       transform="translate(148.8115,547.917)"
       style="fill:#ffffff"><path
         d="M 0,0 -17.988,-4.645 V -55.926 L 0,-52.093 Z"
         style="fill:#ffffff;fill-opacity:1;fill-rule:nonzero;stroke:none"
         id="path463"
         inkscape:connector-curvature="0" /></g><g
       id="g465"
       transform="translate(148.8115,606.6294)"
       style="fill:#ffffff"><path
         d="M 0,0 -17.988,-5.544 V -58.491 L 0,-53.865 Z"
         style="fill:#ffffff;fill-opacity:1;fill-rule:nonzero;stroke:none"
         id="path467"
         inkscape:connector-curvature="0" /></g><g
       id="g469"
       transform="translate(148.8115,490.9614)"
       style="fill:#ffffff"><path
         d="M 0,0 -17.988,-3.771 V -56.178 L 0,-53.216 Z"
         style="fill:#ffffff;fill-opacity:1;fill-rule:nonzero;stroke:none"
         id="path471"
         inkscape:connector-curvature="0" /></g><g
       id="g473"
       transform="translate(148.8115,664.1865)"
       style="fill:#ffffff"><path
         d="M 0,0 -17.988,-6.37 V -58.254 L 0,-52.739 Z"
         style="fill:#ffffff;fill-opacity:1;fill-rule:nonzero;stroke:none"
         id="path475"
         inkscape:connector-curvature="0" /></g><g
       id="g477"
       transform="translate(148.8115,719.7573)"
       style="fill:#ffffff"><path
         d="M 0,0 -17.988,-7.512 V -57.058 L 0,-50.736 Z"
         style="fill:#ffffff;fill-opacity:1;fill-rule:nonzero;stroke:none"
         id="path479"
         inkscape:connector-curvature="0" /></g><g
       id="g481"
       transform="translate(125.7686,542.021)"
       style="fill:#ffffff"><path
         d="M 0,0 -20.283,-5.231 V -55.324 L 0,-51.044 Z"
         style="fill:#ffffff;fill-opacity:1;fill-rule:nonzero;stroke:none"
         id="path483"
         inkscape:connector-curvature="0" /></g><g
       id="g485"
       transform="translate(125.7686,656.1377)"
       style="fill:#ffffff"><path
         d="M 0,0 -20.283,-7.179 V -57.97 L 0,-51.709 Z"
         style="fill:#ffffff;fill-opacity:1;fill-rule:nonzero;stroke:none"
         id="path487"
         inkscape:connector-curvature="0" /></g><g
       id="g489"
       transform="translate(125.7686,486.1118)"
       style="fill:#ffffff"><path
         d="M 0,0 -20.283,-4.262 V -55.465 L 0,-52.155 Z"
         style="fill:#ffffff;fill-opacity:1;fill-rule:nonzero;stroke:none"
         id="path491"
         inkscape:connector-curvature="0" /></g><g
       id="g493"
       transform="translate(125.7686,710.1851)"
       style="fill:#ffffff"><path
         d="M 0,0 -20.283,-8.423 V -56.409 L 0,-49.181 Z"
         style="fill:#ffffff;fill-opacity:1;fill-rule:nonzero;stroke:none"
         id="path495"
         inkscape:connector-curvature="0" /></g><g
       id="g497"
       transform="translate(125.7686,599.562)"
       style="fill:#ffffff"><path
         d="M 0,0 -20.283,-6.212 V -57.906 L 0,-52.723 Z"
         style="fill:#ffffff;fill-opacity:1;fill-rule:nonzero;stroke:none"
         id="path499"
         inkscape:connector-curvature="0" /></g><g
       id="g501"
       transform="translate(207.4639,503.3228)"
       style="fill:#ffffff"><path
         d="M 0,0 -27.559,-5.831 V -60.506 L 0,-56.006 Z"
         style="fill:#ffffff;fill-opacity:1;fill-rule:nonzero;stroke:none"
         id="path503"
         inkscape:connector-curvature="0" /></g><g
       id="g505"
       transform="translate(237.5244,402.5029)"
       style="fill:#ffffff"><path
         d="m 0,0 -2.297,4.008 v 2.109 c 0,0.569 -0.474,1.01 -1.078,1.01 -0.238,0 -0.398,-0.061 -0.635,-0.221 l -4.244,7.448 v 20.635 l 3.895,0.586 V 14.847 c 0,-0.553 0.429,-1.061 0.984,-1.061 0.604,0 1.078,0.508 1.078,1.061 v 21.029 l 12.393,1.855 V 22.897 Z m -11.709,34.481 v -14.31 l -7.705,13.183 z M -24.5,35.795 0.396,-7.006 22.33,42.803 Z"
         style="fill:#ffffff;fill-opacity:1;fill-rule:nonzero;stroke:none"
         id="path507"
         inkscape:connector-curvature="0" /></g><g
       id="g509"
       transform="translate(207.4639,392.6904)"
       style="fill:#ffffff"><path
         d="M 0,0 V 3.771 L 9.461,0.967 Z m -32.568,13.297 5.009,-1.443 v -14.77 l -5.009,-0.539 z m -26.084,-2.045 4.961,2.568 V -5.672 l -4.961,-0.557 z M -81.695,-0.49 -76.641,2.045 V -8.113 l -5.054,-0.586 z m -36.844,-15.28 144.402,15.313 -72.838,21.265 z"
         style="fill:#ffffff;fill-opacity:1;fill-rule:nonzero;stroke:none"
         id="path511"
         inkscape:connector-curvature="0" /></g><g
       id="g513"
       transform="translate(270.2959,443.1494)"
       style="fill:#ffffff"><path
         d="m 0,0 1.191,-2.759 c 0,0 6.069,0.272 12.106,-0.22 l 7.908,-1.791 c 0.111,-0.618 1.031,-5.881 5.199,-8.984 l -6.99,-3.52 C 12.031,-10.856 3.059,-6.959 -6.67,-6.799 l 0.316,0.682 4.09,1.807 c 0,0 -0.841,2.646 -1.347,4.213 l 2.566,0.413 z M 46.26,-7.244 -0.918,3.487 -5.924,2.806 -26.764,-44.516 Z"
         style="fill:#ffffff;fill-opacity:1;fill-rule:nonzero;stroke:none"
         id="path515"
         inkscape:connector-curvature="0" /></g><g
       id="g517"
       transform="translate(174.8955,417.2856)"
       style="fill:#ffffff"><path
         d="M 0,0 5.01,2.551 V -2.092 L 0,-0.649 Z m 51.348,-15.656 -18.78,5.516 V 16.563 Z M 33.963,20.427 32.457,20.207 -9.363,-1.218 58.143,-20.931 Z"
         style="fill:#ffffff;fill-opacity:1;fill-rule:nonzero;stroke:none"
         id="path519"
         inkscape:connector-curvature="0" /></g><g
       id="g521"
       transform="translate(360.7549,422.5942)"
       style="fill:#ffffff"><path
         d="M 0,0 40.838,-9.316 4.578,-13.185 C 3.375,-8.636 1.836,-4.262 0,0 m -23.631,5.342 4.09,-0.921 c 3.535,-5.829 6.402,-12.266 8.381,-19.237 l -3.086,-0.318 c -2.19,7.466 -5.406,14.359 -9.385,20.476 m -39.789,-9.716 15.211,7.765 c 2.377,-4.149 4.533,-8.635 6.324,-13.372 0.951,-2.554 1.744,-5.153 2.408,-7.894 l -16.195,-1.664 c -1.982,5.565 -4.566,10.665 -7.748,15.165 m 24.986,16.386 -81.214,-41.551 179.851,19.097 z"
         style="fill:#ffffff;fill-opacity:1;fill-rule:nonzero;stroke:none"
         id="path523"
         inkscape:connector-curvature="0" /></g><g
       id="g525"
       transform="translate(205.0381,381.7705)"
       style="fill:#ffffff"><path
         d="m 0,0 c -1.029,0 -1.871,-0.664 -1.871,-1.41 0,-0.791 0.842,-1.424 1.871,-1.424 1,0 1.82,0.633 1.82,1.424 C 1.82,-0.664 1,0 0,0"
         style="fill:#ffffff;fill-opacity:1;fill-rule:nonzero;stroke:none"
         id="path527"
         inkscape:connector-curvature="0" /></g><g
       id="g529"
       transform="translate(308.7744,280.3975)"
       style="fill:#ffffff"><path
         d="M 0,0 C 0.918,0.602 1.029,1.727 0.475,2.33 0,3.025 -1.111,3.074 -1.9,2.41 -2.695,1.809 -2.979,0.697 -2.426,0.016 -1.9,-0.633 -0.791,-0.666 0,0"
         style="fill:#ffffff;fill-opacity:1;fill-rule:nonzero;stroke:none"
         id="path531"
         inkscape:connector-curvature="0" /></g><g
       id="g533"
       transform="translate(307.9834,275.6104)"
       style="fill:#ffffff"><path
         d="M 0,0 C 0.109,-0.221 0.27,-0.332 0.555,-0.541 0.27,-1.219 0.473,-2.059 0.998,-2.693 1.789,-3.834 3.328,-4.039 4.246,-3.25 5.355,-2.439 5.484,-0.965 4.643,0.145 4.197,0.537 3.801,0.822 3.328,0.951 3.328,1.459 3.215,1.885 2.898,2.314 2.266,3.123 1.059,3.297 0.27,2.678 -0.557,2.014 -0.686,0.822 0,0"
         style="fill:#ffffff;fill-opacity:1;fill-rule:nonzero;stroke:none"
         id="path535"
         inkscape:connector-curvature="0" /></g><g
       id="g537"
       transform="translate(210.4912,340.2041)"
       style="fill:#ffffff"><path
         d="m 0,0 c -1.396,-0.633 -1.873,-2.426 -1.238,-4.025 0.746,-1.569 2.455,-2.426 3.771,-1.791 1.346,0.636 1.871,2.425 1.11,4.041 C 2.963,-0.189 1.297,0.604 0,0"
         style="fill:#ffffff;fill-opacity:1;fill-rule:nonzero;stroke:none"
         id="path539"
         inkscape:connector-curvature="0" /></g><g
       id="g541"
       transform="translate(215.2432,334.2314)"
       style="fill:#ffffff"><path
         d="m 0,0 c -0.744,-0.557 -0.793,-1.824 -0.078,-2.727 0.762,-0.902 1.947,-1.207 2.74,-0.568 0.762,0.568 0.793,1.82 0.049,2.738 C 1.998,0.379 0.84,0.633 0,0"
         style="fill:#ffffff;fill-opacity:1;fill-rule:nonzero;stroke:none"
         id="path543"
         inkscape:connector-curvature="0" /></g><g
       id="g545"
       transform="translate(216.4326,327.7666)"
       style="fill:#ffffff"><path
         d="m 0,0 c -0.904,-0.684 -0.668,-2.395 0.443,-3.773 1.11,-1.475 2.662,-2.077 3.58,-1.411 0.873,0.682 0.668,2.393 -0.441,3.868 C 2.471,0.092 0.84,0.664 0,0"
         style="fill:#ffffff;fill-opacity:1;fill-rule:nonzero;stroke:none"
         id="path547"
         inkscape:connector-curvature="0" /></g><g
       id="g549"
       transform="translate(240.4248,315.0537)"
       style="fill:#ffffff"><path
         d="M 0,0 C 0.635,0.43 0.635,1.428 0.049,2.189 -0.553,2.918 -1.475,3.092 -2.107,2.695 -2.693,2.189 -2.693,1.252 -2.141,0.492 -1.475,-0.221 -0.602,-0.443 0,0"
         style="fill:#ffffff;fill-opacity:1;fill-rule:nonzero;stroke:none"
         id="path551"
         inkscape:connector-curvature="0" /></g><g
       id="g553"
       transform="translate(249.4717,314.6904)"
       style="fill:#ffffff"><path
         d="M 0,0 C 0.525,0.477 0.525,1.299 0.082,1.951 -0.473,2.584 -1.299,2.74 -1.852,2.313 -2.328,1.932 -2.328,1.029 -1.898,0.381 -1.422,-0.223 -0.584,-0.332 0,0"
         style="fill:#ffffff;fill-opacity:1;fill-rule:nonzero;stroke:none"
         id="path555"
         inkscape:connector-curvature="0" /></g><g
       id="g557"
       transform="translate(272.5479,303.249)"
       style="fill:#ffffff"><path
         d="M 0,0 C 0.443,0.334 0.395,1.127 -0.078,1.729 -0.588,2.377 -1.35,2.582 -1.822,2.314 -2.252,1.949 -2.141,1.139 -1.666,0.49 -1.189,-0.158 -0.428,-0.363 0,0"
         style="fill:#ffffff;fill-opacity:1;fill-rule:nonzero;stroke:none"
         id="path559"
         inkscape:connector-curvature="0" /></g><g
       id="g561"
       transform="translate(289.6006,297.417)"
       style="fill:#ffffff"><path
         d="M 0,0 C 0.346,0.221 0.395,0.713 0.076,1.078 -0.209,1.459 -0.684,1.508 -0.969,1.283 -1.287,1.014 -1.395,0.49 -1.078,0.156 -0.809,-0.176 -0.332,-0.316 0,0"
         style="fill:#ffffff;fill-opacity:1;fill-rule:nonzero;stroke:none"
         id="path563"
         inkscape:connector-curvature="0" /></g><g
       id="g565"
       transform="translate(282.6748,294.8369)"
       style="fill:#ffffff"><path
         d="M 0,0 C 1.123,1.137 0.762,3.182 -0.666,4.529 -2.094,5.924 -4.201,6.084 -5.23,5.006 -6.26,3.814 -6.023,1.818 -4.566,0.457 -3.09,-0.891 -1.031,-1.127 0,0"
         style="fill:#ffffff;fill-opacity:1;fill-rule:nonzero;stroke:none"
         id="path567"
         inkscape:connector-curvature="0" /></g><g
       id="g569"
       transform="translate(235.8916,371.8662)"
       style="fill:#ffffff"><path
         d="M 0,0 C 0.635,0 1.207,0.412 1.207,0.891 1.207,1.428 0.635,1.824 0,1.824 -0.633,1.824 -1.217,1.428 -1.217,0.891 -1.217,0.412 -0.633,0 0,0"
         style="fill:#ffffff;fill-opacity:1;fill-rule:nonzero;stroke:none"
         id="path571"
         inkscape:connector-curvature="0" /></g><g
       id="g573"
       transform="translate(210.9951,371.0283)"
       style="fill:#ffffff"><path
         d="m 0,0 c -0.473,0 -0.869,-0.365 -0.869,-0.697 0,-0.414 0.396,-0.713 0.869,-0.713 0.477,0 0.922,0.299 0.922,0.713 C 0.922,-0.365 0.477,0 0,0"
         style="fill:#ffffff;fill-opacity:1;fill-rule:nonzero;stroke:none"
         id="path575"
         inkscape:connector-curvature="0" /></g><g
       id="g577"
       transform="translate(246.9385,372.501)"
       style="fill:#ffffff"><path
         d="M 0,0 C 0.555,0 1.078,0.363 1.078,0.855 1.078,1.334 0.555,1.666 0,1.666 -0.555,1.666 -1.029,1.334 -1.029,0.855 -1.029,0.363 -0.555,0 0,0"
         style="fill:#ffffff;fill-opacity:1;fill-rule:nonzero;stroke:none"
         id="path579"
         inkscape:connector-curvature="0" /></g><g
       id="g581"
       transform="translate(260.6475,360.5986)"
       style="fill:#ffffff"><path
         d="M 0,0 C 0.791,0 1.424,0.461 1.424,1.094 1.424,1.65 0.791,2.172 0,2.172 -0.793,2.172 -1.475,1.65 -1.475,1.094 -1.475,0.461 -0.793,0 0,0"
         style="fill:#ffffff;fill-opacity:1;fill-rule:nonzero;stroke:none"
         id="path583"
         inkscape:connector-curvature="0" /></g><g
       id="g585"
       transform="translate(255.4014,363.1514)"
       style="fill:#ffffff"><path
         d="m 0,0 c -0.127,0.049 -0.205,0.08 -0.285,0.08 -0.633,0 -1.111,-0.412 -1.111,-0.982 0,-0.539 0.478,-0.889 1.111,-0.889 0.472,0 0.918,0.332 0.998,0.729 0.396,0.095 0.682,0.316 0.682,0.681 0,0.334 -0.334,0.651 -0.762,0.651 C 0.348,0.27 0.156,0.174 0,0"
         style="fill:#ffffff;fill-opacity:1;fill-rule:nonzero;stroke:none"
         id="path587"
         inkscape:connector-curvature="0" /></g><g
       id="g589"
       transform="translate(254.3701,367.0361)"
       style="fill:#ffffff"><path
         d="M 0,0 C 0.635,0 1.219,0.393 1.219,0.869 1.219,1.408 0.635,1.787 0,1.787 -0.713,1.787 -1.205,1.408 -1.205,0.869 -1.205,0.393 -0.713,0 0,0"
         style="fill:#ffffff;fill-opacity:1;fill-rule:nonzero;stroke:none"
         id="path591"
         inkscape:connector-curvature="0" /></g><g
       id="g593"
       transform="translate(241.6123,370.3799)"
       style="fill:#ffffff"><path
         d="m 0,0 c 0.127,-0.383 0.477,-0.635 0.998,-0.635 0.557,0 1.031,0.334 1.031,0.838 0,0.238 -0.156,0.541 -0.474,0.682 v 0.144 c 0,0.586 -0.602,1.063 -1.315,1.063 -0.746,0 -1.379,-0.477 -1.379,-1.063 C -1.139,0.506 -0.633,0.107 0,0"
         style="fill:#ffffff;fill-opacity:1;fill-rule:nonzero;stroke:none"
         id="path595"
         inkscape:connector-curvature="0" /></g><g
       id="g597"
       transform="translate(227.7627,374.1201)"
       style="fill:#ffffff"><path
         d="M 0,0 C 0.553,0 1.062,0.428 1.062,0.98 1.062,1.457 0.553,1.883 0,1.883 -0.6,1.883 -1.186,1.457 -1.186,0.98 -1.186,0.428 -0.6,0 0,0"
         style="fill:#ffffff;fill-opacity:1;fill-rule:nonzero;stroke:none"
         id="path599"
         inkscape:connector-curvature="0" /></g><g
       id="g601"
       transform="translate(166.085,251.9014)"
       style="fill:#ffffff"><path
         d="M 0,0 C 0.553,0 0.949,0.713 0.949,1.635 0.949,2.584 0.553,3.299 0,3.299 -0.525,3.299 -0.998,2.584 -0.998,1.635 -0.998,0.713 -0.525,0 0,0"
         style="fill:#ffffff;fill-opacity:1;fill-rule:nonzero;stroke:none"
         id="path603"
         inkscape:connector-curvature="0" /></g><g
       id="g605"
       transform="translate(173.1846,237.0537)"
       style="fill:#ffffff"><path
         d="M 0,0 C 0.809,0 1.395,0.715 1.395,1.631 1.395,2.537 0.809,3.248 0,3.248 -0.713,3.248 -1.299,2.537 -1.299,1.631 -1.299,0.715 -0.713,0 0,0"
         style="fill:#ffffff;fill-opacity:1;fill-rule:nonzero;stroke:none"
         id="path607"
         inkscape:connector-curvature="0" /></g><g
       id="g609"
       transform="translate(176.9717,237.0537)"
       style="fill:#ffffff"><path
         d="M 0,0 C 0.396,0 0.744,0.553 0.744,1.187 0.744,1.904 0.396,2.441 0,2.441 -0.443,2.441 -0.809,1.904 -0.809,1.187 -0.809,0.553 -0.443,0 0,0"
         style="fill:#ffffff;fill-opacity:1;fill-rule:nonzero;stroke:none"
         id="path611"
         inkscape:connector-curvature="0" /></g><g
       id="g613"
       transform="translate(234.1494,358.3018)"
       style="fill:#ffffff"><path
         d="m 0,0 c -0.555,0 -0.984,-0.473 -0.984,-1.094 v -1.82 c 0,-0.606 0.429,-1.047 0.984,-1.047 0.604,0 1.078,0.441 1.078,1.047 v 1.82 C 1.078,-0.473 0.604,0 0,0"
         style="fill:#ffffff;fill-opacity:1;fill-rule:nonzero;stroke:none"
         id="path615"
         inkscape:connector-curvature="0" /></g><g
       id="g617"
       transform="translate(234.1494,353.2158)"
       style="fill:#ffffff"><path
         d="m 0,0 c -0.555,0 -0.984,-0.445 -0.984,-1.031 v -0.903 c 0,-0.587 0.429,-1.06 0.984,-1.06 0.604,0 1.078,0.473 1.078,1.06 v 0.903 C 1.078,-0.445 0.604,0 0,0"
         style="fill:#ffffff;fill-opacity:1;fill-rule:nonzero;stroke:none"
         id="path619"
         inkscape:connector-curvature="0" /></g><g
       id="g621"
       transform="translate(234.1494,348.9971)"
       style="fill:#ffffff"><path
         d="m 0,0 c -0.555,0 -0.984,-0.521 -0.984,-1.105 v -0.936 c 0,-0.572 0.429,-1.016 0.984,-1.016 0.604,0 1.078,0.444 1.078,1.016 v 0.936 C 1.078,-0.521 0.604,0 0,0"
         style="fill:#ffffff;fill-opacity:1;fill-rule:nonzero;stroke:none"
         id="path623"
         inkscape:connector-curvature="0" /></g><g
       id="g625"
       transform="translate(234.1494,458.5376)"
       style="fill:#ffffff"><path
         d="M 0,0 C 0.604,0 1.078,0.477 1.078,1.03 V 7.479 C 1.078,8.033 0.604,8.542 0,8.542 -0.555,8.542 -0.984,8.033 -0.984,7.479 V 1.03 C -0.984,0.477 -0.555,0 0,0"
         style="fill:#ffffff;fill-opacity:1;fill-rule:nonzero;stroke:none"
         id="path627"
         inkscape:connector-curvature="0" /></g></g></svg>