<?xml version="1.0" encoding="UTF-8" standalone="no"?>
<!-- Created with Inkscape (http://www.inkscape.org/) -->

<svg
   xmlns:dc="http://purl.org/dc/elements/1.1/"
   xmlns:cc="http://creativecommons.org/ns#"
   xmlns:rdf="http://www.w3.org/1999/02/22-rdf-syntax-ns#"
   xmlns:svg="http://www.w3.org/2000/svg"
   xmlns="http://www.w3.org/2000/svg"
   xmlns:sodipodi="http://sodipodi.sourceforge.net/DTD/sodipodi-0.dtd"
   xmlns:inkscape="http://www.inkscape.org/namespaces/inkscape"
   width="122.56078mm"
   height="92.302208mm"
   viewBox="0 0 122.56078 92.302208"
   version="1.1"
   id="svg911"
   inkscape:version="0.92.3 (2405546, 2018-03-11)"
   sodipodi:docname="drawing.svg">
  <defs
     id="defs905" />
  <sodipodi:namedview
     id="base"
     pagecolor="#ffffff"
     bordercolor="#666666"
     borderopacity="1.0"
     inkscape:pageopacity="0.0"
     inkscape:pageshadow="2"
     inkscape:zoom="0.49497475"
     inkscape:cx="133.04022"
     inkscape:cy="193.41432"
     inkscape:document-units="mm"
     inkscape:current-layer="layer1"
     showgrid="false"
     fit-margin-top="0"
     fit-margin-left="0"
     fit-margin-right="0"
     fit-margin-bottom="0"
     inkscape:window-width="1440"
     inkscape:window-height="1051"
     inkscape:window-x="0"
     inkscape:window-y="0"
     inkscape:window-maximized="1" />
  <metadata
     id="metadata908">
    <rdf:RDF>
      <cc:Work
         rdf:about="">
        <dc:format>image/svg+xml</dc:format>
        <dc:type
           rdf:resource="http://purl.org/dc/dcmitype/StillImage" />
        <dc:title></dc:title>
      </cc:Work>
    </rdf:RDF>
  </metadata>
  <g
     inkscape:label="Layer 1"
     inkscape:groupmode="layer"
     id="layer1"
     transform="translate(-38.602337,-107.70533)">
    <path
       style="fill:#ffffff;stroke-width:0.26458335"
       d="m 56.455226,199.68897 c -0.07281,-0.18973 -0.101134,-4.80939 -0.06295,-10.2659 l 0.06943,-9.92094 3.957381,-0.0735 c 4.943874,-0.0919 6.446959,0.19155 7.884935,1.48674 1.458574,1.31375 2.083088,2.83586 2.247985,5.47895 0.254457,4.07863 -1.46617,7.57548 -4.085392,8.30281 -0.554992,0.15411 -2.284529,0.28087 -3.843417,0.28168 l -2.834343,0.002 -0.07607,2.44739 -0.07608,2.4474 -1.524555,0.0794 c -1.069023,0.0557 -1.564109,-0.0236 -1.65693,-0.26552 z m 7.563374,-7.35763 c 2.451706,-0.46496 3.229848,-1.74533 3.214375,-5.28901 -0.01685,-3.85777 -1.261538,-5.02666 -5.352661,-5.02666 h -2.111311 v 5.29167 5.29167 h 1.419095 c 0.780502,0 2.054228,-0.12046 2.830502,-0.26767 z m 67.1879,-2.66798 v -10.34399 l 4.82865,0.0979 c 4.36671,0.0885 4.93475,0.15398 5.93779,0.68425 2.17729,1.15104 3.27998,3.40903 3.32515,6.80895 0.0494,3.71886 -1.28505,6.50765 -3.62183,7.56899 -0.84891,0.38557 -1.73557,0.49042 -4.18591,0.495 l -3.10885,0.006 v 2.51354 2.51354 h -1.5875 -1.5875 z m 8.77934,2.32642 c 1.24187,-0.51889 1.86387,-1.89059 2.01366,-4.4408 0.0951,-1.61971 0.0144,-2.24125 -0.41801,-3.21883 -0.79261,-1.79182 -1.51261,-2.14759 -4.59702,-2.27148 l -2.60297,-0.10454 v 5.3616 5.3616 l 2.34264,-0.15177 c 1.28845,-0.0835 2.75622,-0.32458 3.2617,-0.53578 z m -98.471198,2.569 c -2.540158,-1.10156 -2.912305,-2.3386 -2.912305,-9.68071 v -5.50823 h 1.5875 1.5875 l 4.23e-4,5.35781 c 5.03e-4,6.42388 0.166161,7.01252 2.116255,7.51933 0.654844,0.17019 2.053828,0.31902 3.108854,0.33073 l 1.918217,0.0213 v -6.61459 -6.61458 h 1.5875 1.5875 v 7.80521 7.80521 l -4.828645,-0.0103 c -3.711776,-0.008 -5.042403,-0.10305 -5.752799,-0.41112 z m 32.339428,-7.31759 0.07014,-7.73906 1.521354,-0.0794 1.521354,-0.0793 v 7.81841 7.81842 h -1.591495 -1.591498 z m 7.610766,-0.0661 v -7.80521 h 1.5875 1.5875 v 7.80521 7.80521 h -1.5875 -1.5875 z m 10.608839,7.47058 c -0.349774,-0.17976 -0.885555,-0.66261 -1.190625,-1.07301 -0.513501,-0.69079 -0.560705,-1.14741 -0.63595,-6.15156 l -0.08128,-5.40539 h -1.440077 -1.440077 v -1.32291 -1.32292 h 1.446257 1.446258 l 0.0751,-2.84427 0.0751,-2.84427 h 1.455209 1.455208 l 0.0751,2.84427 0.0751,2.84427 h 2.240008 2.240007 v 1.32292 1.32291 h -2.248958 -2.248958 l 0.004,4.69636 c 0.0021,2.58299 0.0999,4.84735 0.21704,5.03191 0.286758,0.45179 1.772682,0.85507 3.1506,0.85507 h 1.126225 v 1.19062 1.19063 l -2.579687,-0.004 c -1.519965,-0.002 -2.840934,-0.13816 -3.21564,-0.33073 z m 10.168775,-0.26907 c -0.57778,-0.32724 -1.33208,-1.00989 -1.67622,-1.517 -0.54411,-0.80178 -0.613552,-1.17041 -0.53252,-2.82682 0.10472,-2.14081 0.5755,-3.02025 2.09628,-3.91603 0.7736,-0.45566 1.48156,-0.5423 5.09678,-0.62371 l 4.1984,-0.0945 -0.13408,-1.18949 c -0.2266,-2.01047 -0.33438,-2.04968 -5.89026,-2.1435 l -4.886,-0.0825 v -1.30656 -1.30655 l 4.82865,0.006 c 5.24401,0.007 6.87009,0.24227 7.83931,1.13414 1.23859,1.13975 1.35496,1.85912 1.35496,8.37589 v 6.09391 l -5.6224,-0.004 c -5.33766,-0.004 -5.67559,-0.0345 -6.6729,-0.59934 z m 9.1203,-4.04701 v -2.26946 l -3.56318,0.0866 c -3.96251,0.0964 -4.27964,0.22424 -4.54036,1.83088 -0.19647,1.21072 0.51451,2.09279 1.90221,2.35995 0.57308,0.11032 2.20281,0.21428 3.62164,0.23102 l 2.57969,0.0304 z m 13.22917,-3.1545 v -7.80521 h 1.5875 1.5875 v 7.80521 7.80521 h -1.5875 -1.5875 z m 23.01875,0.0132 v -7.81841 h 4.08801 c 2.24842,0 4.69858,0.13094 5.44482,0.29098 1.64868,0.35358 3.03682,1.49356 3.45782,2.83964 0.16846,0.53865 0.36096,3.53682 0.43264,6.7385 l 0.12915,5.76807 -1.68299,-0.0795 -1.683,-0.0795 -0.036,-5.45114 c -0.0241,-3.65515 -0.14012,-5.64571 -0.35203,-6.04167 -0.49269,-0.9206 -1.858,-1.33948 -4.36599,-1.33948 -1.95302,0 -2.26473,0.0624 -2.31138,0.46302 -0.0297,0.25466 -0.0594,3.14193 -0.0662,6.41615 l -0.0122,5.95312 -1.52136,0.0794 -1.52135,0.0794 v -7.81841 z m -29.89792,-0.41008 v -1.5875 h 1.5875 1.5875 v 1.5875 1.5875 h -1.5875 -1.5875 z m -43.867311,-11.44323 0.07877,-1.65364 1.521354,-0.0793 1.521354,-0.0794 v 1.73299 1.733 h -1.600126 -1.600123 z m 7.672917,0 0.07877,-1.65364 h 1.455209 1.455208 l 0.07877,1.65364 0.07877,1.65365 h -1.612749 -1.612749 z m 43.127084,0 0.0788,-1.65364 h 1.45521 1.4552 l 0.0788,1.65364 0.0788,1.65365 h -1.61275 -1.61275 z M 64.399211,173.1884 c -4.102364,-1.07895 -7.988993,-4.26238 -8.870219,-7.26536 -0.493237,-1.6808 -0.606933,-4.92185 -0.267574,-7.62725 1.539428,-12.27234 12.776626,-32.95175 23.683082,-43.58312 5.225364,-5.09357 9.279186,-7.2576 13.083836,-6.98447 7.129235,0.5118 11.642124,9.84455 15.152804,31.33632 l 0.87152,5.33527 2.38265,-0.0332 c 1.96962,-0.0275 2.62311,0.0737 3.76982,0.58348 3.51106,1.56094 7.63557,5.59932 14.48166,14.17921 1.27725,1.60073 2.36072,2.95405 2.4077,3.00737 0.047,0.0533 1.1332,-0.72143 2.41382,-1.72168 3.71502,-2.90168 5.11666,-3.89954 7.0909,-5.04815 3.6586,-2.12858 4.89479,-2.09107 4.89479,0.14852 0,2.3076 -1.50605,5.71691 -3.90538,8.84077 -0.47448,0.61774 -1.2534,1.65759 -1.73095,2.31078 -1.30075,1.77913 -2.35254,2.38541 -4.12623,2.37846 -1.8262,-0.007 -3.29996,-0.64413 -4.89759,-2.11678 l -1.19799,-1.10426 -1.85361,1.23228 c -3.07659,2.04531 -4.77556,2.6403 -7.55596,2.64615 -2.10873,0.004 -2.54508,-0.081 -3.8128,-0.74615 -2.69164,-1.41234 -4.99402,-4.35607 -6.6588,-8.51368 -0.94819,-2.36799 -2.21408,-7.15787 -2.4983,-9.45306 -0.10385,-0.83867 -0.2967,-1.59153 -0.42856,-1.67302 -0.38181,-0.23597 -3.38502,1.56493 -6.08118,3.64662 -1.364422,1.05347 -4.623898,3.65411 -7.243273,5.77919 -7.887171,6.3988 -12.426381,9.58349 -16.740531,11.74509 -4.909828,2.46006 -9.481574,3.45871 -12.363635,2.7007 z m 3.96875,-3.21688 c 2.894277,-0.84981 8.081703,-3.51572 11.773958,-6.05084 3.620971,-2.48617 9.152398,-6.5268 13.229167,-9.66372 5.322543,-4.09549 10.005924,-7.50168 11.439934,-8.32017 0.54527,-0.31123 0.99232,-0.65312 0.99344,-0.75976 0.009,-0.81786 -3.89214,-19.29461 -4.51856,-21.40324 -1.438238,-4.84129 -2.885138,-7.39665 -5.094248,-8.99692 -1.329563,-0.96313 -2.740982,-1.34516 -5.012388,-1.3567 -1.587016,-0.008 -2.055934,0.1202 -4.047921,1.10727 -1.85129,0.91735 -2.738207,1.59648 -4.974542,3.8091 -4.919737,4.86757 -9.811803,11.65759 -14.521405,20.15521 -6.361911,11.47891 -9.660842,20.87701 -9.40699,26.79891 0.162737,3.79629 1.023424,4.90106 4.127222,5.29766 1.801735,0.23022 3.839591,0.0212 6.012333,-0.6168 z m 70.700439,-3.46079 c 1.48129,-1.12713 4.27559,-6.83022 4.35635,-8.89118 0.0627,-1.60005 -0.34921,-1.78806 -2.01108,-0.91796 -1.28223,0.67133 -5.19332,3.72196 -7.85681,6.12826 l -1.04253,0.94186 0.84317,1.04922 c 0.46375,0.57707 1.15175,1.25154 1.5289,1.49882 2.00445,1.31425 2.66608,1.34446 4.182,0.19098 z m -14.47648,-0.16589 c 1.66156,-0.49674 3.99997,-1.79163 3.80504,-2.10704 -0.59744,-0.96668 -7.10547,-8.80896 -8.43441,-10.1636 -2.88315,-2.93891 -6.31696,-4.74768 -9.59403,-5.0537 l -1.69062,-0.15787 0.18553,1.03227 c 1.13835,6.33345 3.09797,10.76007 6.08458,13.74448 2.89047,2.88834 6.05894,3.77721 9.64391,2.70546 z"
       id="path1038"
       inkscape:connector-curvature="0" />
  </g>
</svg>
